# xmcd
# Copyright (C) 1995-1998 Ti Kan
#
# Track frame offsets:
#       150
#       17092
#       33214
#       49416
#       63042
#       81561
#       99069
#       114992
#       131451
#       148335
#       165410
#       181204
#       203890
#       220435
#       243087
#
# Disc length: 3521 seconds
#
# Revision: 0
# Processed by: cddbd v1.5.2PL0 Copyright (c) Steve Scherf et al.
# Submitted via: CD-Import v1.0
#
DISCID=c80dbf0f
DTITLE=Busta Rhymes - The Big Bang
DYEAR=06
DGENRE=
TTITLE0=Get You Some
TTITLE1=Touch It
TTITLE2=How We Do It Over Here
TTITLE3=New Yoor
TTITLE4=Been Through The Storm
TTITLE5=In  The Ghetto
TTITLE6=Cocaina
TTITLE7=You Can't Hold The Torch
TTITLE8=Goldmine
TTITLE9=I Love My B****
TTITLE10=Don't Get Carried Away
TTITLE11=They're Out To Get Me
TTITLE12=Get Down
TTITLE13=I'll Do It All
TTITLE14=Legend Of The Fall Offs
EXTD=
EXTT0=
EXTT1=
EXTT2=
EXTT3=
EXTT4=
EXTT5=
EXTT6=
EXTT7=
EXTT8=
EXTT9=
EXTT10=
EXTT11=
EXTT12=
EXTT13=
EXTT14=
PLAYORDER=
